<mxfile host="65bd71144e">
    <diagram id="AacW0Xy2I8wjZTWLAG0-" name="画面イメージ">
        <mxGraphModel dx="959" dy="908" grid="1" gridSize="10" guides="1" tooltips="1" connect="1" arrows="1" fold="1" page="1" pageScale="1" pageWidth="827" pageHeight="1169" math="0" shadow="0">
            <root>
                <mxCell id="0"/>
                <mxCell id="1" parent="0"/>
                <mxCell id="27" style="edgeStyle=none;html=1;exitX=1;exitY=0.5;exitDx=0;exitDy=0;fontSize=19;fontColor=#000000;strokeWidth=6;fillColor=#dae8fc;strokeColor=#0000FF;" parent="1" source="10" edge="1">
                    <mxGeometry relative="1" as="geometry">
                        <mxPoint x="570" y="260" as="targetPoint"/>
                    </mxGeometry>
                </mxCell>
                <mxCell id="10" value="" style="rounded=0;whiteSpace=wrap;html=1;fillColor=#dae8fc;strokeColor=#6c8ebf;" parent="1" vertex="1">
                    <mxGeometry x="29" y="10" width="400" height="500" as="geometry"/>
                </mxCell>
                <mxCell id="4" value="画像" style="whiteSpace=wrap;html=1;aspect=fixed;" parent="1" vertex="1">
                    <mxGeometry x="60" y="150" width="60" height="60" as="geometry"/>
                </mxCell>
                <mxCell id="5" value="" style="whiteSpace=wrap;html=1;aspect=fixed;" parent="1" vertex="1">
                    <mxGeometry x="130" y="150" width="60" height="60" as="geometry"/>
                </mxCell>
                <mxCell id="6" value="" style="whiteSpace=wrap;html=1;aspect=fixed;" parent="1" vertex="1">
                    <mxGeometry x="199" y="150" width="60" height="60" as="geometry"/>
                </mxCell>
                <mxCell id="7" value="" style="whiteSpace=wrap;html=1;aspect=fixed;" parent="1" vertex="1">
                    <mxGeometry x="270" y="150" width="60" height="60" as="geometry"/>
                </mxCell>
                <mxCell id="8" value="" style="whiteSpace=wrap;html=1;aspect=fixed;" parent="1" vertex="1">
                    <mxGeometry x="340" y="150" width="60" height="60" as="geometry"/>
                </mxCell>
                <mxCell id="9" value="" style="whiteSpace=wrap;html=1;aspect=fixed;" parent="1" vertex="1">
                    <mxGeometry x="60" y="220" width="60" height="60" as="geometry"/>
                </mxCell>
                <mxCell id="11" value="" style="whiteSpace=wrap;html=1;aspect=fixed;" parent="1" vertex="1">
                    <mxGeometry x="60" y="290" width="60" height="60" as="geometry"/>
                </mxCell>
                <mxCell id="12" value="" style="whiteSpace=wrap;html=1;aspect=fixed;" parent="1" vertex="1">
                    <mxGeometry x="60" y="360" width="60" height="60" as="geometry"/>
                </mxCell>
                <mxCell id="14" value="" style="whiteSpace=wrap;html=1;aspect=fixed;" parent="1" vertex="1">
                    <mxGeometry x="130" y="220" width="60" height="60" as="geometry"/>
                </mxCell>
                <mxCell id="15" value="" style="whiteSpace=wrap;html=1;aspect=fixed;" parent="1" vertex="1">
                    <mxGeometry x="199" y="220" width="60" height="60" as="geometry"/>
                </mxCell>
                <mxCell id="16" value="" style="whiteSpace=wrap;html=1;aspect=fixed;" parent="1" vertex="1">
                    <mxGeometry x="270" y="220" width="60" height="60" as="geometry"/>
                </mxCell>
                <mxCell id="17" value="" style="whiteSpace=wrap;html=1;aspect=fixed;" parent="1" vertex="1">
                    <mxGeometry x="340" y="220" width="60" height="60" as="geometry"/>
                </mxCell>
                <mxCell id="18" value="" style="whiteSpace=wrap;html=1;aspect=fixed;" parent="1" vertex="1">
                    <mxGeometry x="130" y="290" width="60" height="60" as="geometry"/>
                </mxCell>
                <mxCell id="19" value="" style="whiteSpace=wrap;html=1;aspect=fixed;" parent="1" vertex="1">
                    <mxGeometry x="199" y="290" width="60" height="60" as="geometry"/>
                </mxCell>
                <mxCell id="20" value="" style="whiteSpace=wrap;html=1;aspect=fixed;" parent="1" vertex="1">
                    <mxGeometry x="270" y="290" width="60" height="60" as="geometry"/>
                </mxCell>
                <mxCell id="21" value="" style="whiteSpace=wrap;html=1;aspect=fixed;" parent="1" vertex="1">
                    <mxGeometry x="340" y="290" width="60" height="60" as="geometry"/>
                </mxCell>
                <mxCell id="22" value="" style="whiteSpace=wrap;html=1;aspect=fixed;" parent="1" vertex="1">
                    <mxGeometry x="130" y="360" width="60" height="60" as="geometry"/>
                </mxCell>
                <mxCell id="23" value="" style="whiteSpace=wrap;html=1;aspect=fixed;" parent="1" vertex="1">
                    <mxGeometry x="199" y="360" width="60" height="60" as="geometry"/>
                </mxCell>
                <mxCell id="24" value="" style="whiteSpace=wrap;html=1;aspect=fixed;" parent="1" vertex="1">
                    <mxGeometry x="270" y="360" width="60" height="60" as="geometry"/>
                </mxCell>
                <mxCell id="25" value="" style="whiteSpace=wrap;html=1;aspect=fixed;" parent="1" vertex="1">
                    <mxGeometry x="340" y="360" width="60" height="60" as="geometry"/>
                </mxCell>
                <mxCell id="26" value="サンプル一覧" style="text;html=1;strokeColor=none;fillColor=none;align=center;verticalAlign=middle;whiteSpace=wrap;rounded=0;fontColor=#000000;fontStyle=1;fontSize=19;" parent="1" vertex="1">
                    <mxGeometry x="109" y="40" width="240" height="30" as="geometry"/>
                </mxCell>
                <mxCell id="28" value="" style="rounded=0;whiteSpace=wrap;html=1;fillColor=#dae8fc;strokeColor=#6c8ebf;" parent="1" vertex="1">
                    <mxGeometry x="570" width="400" height="500" as="geometry"/>
                </mxCell>
                <mxCell id="29" value="選択されたページが表示" style="text;html=1;strokeColor=none;fillColor=none;align=center;verticalAlign=middle;whiteSpace=wrap;rounded=0;fontColor=#000000;fontStyle=1;fontSize=19;" parent="1" vertex="1">
                    <mxGeometry x="650" y="230" width="240" height="30" as="geometry"/>
                </mxCell>
                <mxCell id="30" value="←トップページに戻る" style="text;html=1;strokeColor=none;fillColor=none;align=center;verticalAlign=middle;whiteSpace=wrap;rounded=0;fontColor=#000000;fontStyle=1;fontSize=14;" parent="1" vertex="1">
                    <mxGeometry x="570" y="420" width="203" height="30" as="geometry"/>
                </mxCell>
                <mxCell id="31" value="画像選択で&lt;br&gt;画面遷移" style="shape=callout;whiteSpace=wrap;html=1;perimeter=calloutPerimeter;fontSize=14;fontColor=#000000;fillColor=#FFFFFF;position2=0;" parent="1" vertex="1">
                    <mxGeometry x="380" y="110" width="120" height="90" as="geometry"/>
                </mxCell>
                <mxCell id="32" value="マウスオーバーすると、&lt;br&gt;画像の色が変わって、&lt;br&gt;説明文画像の上に表示される" style="shape=callout;whiteSpace=wrap;html=1;perimeter=calloutPerimeter;fontSize=14;fontColor=#000000;fillColor=#FFFFFF;position2=0.05;align=left;size=40;position=0.16;base=20;" parent="1" vertex="1">
                    <mxGeometry x="80" y="50" width="190" height="120" as="geometry"/>
                </mxCell>
                <mxCell id="33" value="サンプル共通表示" style="shape=callout;whiteSpace=wrap;html=1;perimeter=calloutPerimeter;fontSize=14;fontColor=#000000;fillColor=#FFFFFF;position2=0.65;base=50;rotation=0;verticalAlign=middle;flipV=0;flipH=1;horizontal=1;size=40;position=0.13;" parent="1" vertex="1">
                    <mxGeometry x="677" y="330" width="150" height="100" as="geometry"/>
                </mxCell>
                <mxCell id="xU7o8Ema9u9yW312j0Ab-33" value="" style="endArrow=none;html=1;fontSize=16;exitX=0;exitY=0.898;exitDx=0;exitDy=0;exitPerimeter=0;entryX=0.998;entryY=0.897;entryDx=0;entryDy=0;entryPerimeter=0;strokeColor=#000000;" parent="1" source="10" target="10" edge="1">
                    <mxGeometry width="50" height="50" relative="1" as="geometry">
                        <mxPoint x="170" y="500" as="sourcePoint"/>
                        <mxPoint x="240" y="330" as="targetPoint"/>
                    </mxGeometry>
                </mxCell>
                <mxCell id="xU7o8Ema9u9yW312j0Ab-34" value="" style="endArrow=none;html=1;fontSize=16;exitX=0;exitY=0.898;exitDx=0;exitDy=0;exitPerimeter=0;entryX=0.998;entryY=0.897;entryDx=0;entryDy=0;entryPerimeter=0;strokeColor=#000000;" parent="1" edge="1">
                    <mxGeometry width="50" height="50" relative="1" as="geometry">
                        <mxPoint x="570.8" y="450.5" as="sourcePoint"/>
                        <mxPoint x="970" y="450" as="targetPoint"/>
                    </mxGeometry>
                </mxCell>
                <mxCell id="xU7o8Ema9u9yW312j0Ab-35" value="🄫 2022 buntyo" style="text;html=1;strokeColor=none;fillColor=none;align=center;verticalAlign=middle;whiteSpace=wrap;rounded=0;fontSize=16;fontColor=#000000;" parent="1" vertex="1">
                    <mxGeometry x="30" y="480" width="170" height="30" as="geometry"/>
                </mxCell>
                <mxCell id="xU7o8Ema9u9yW312j0Ab-36" value="🄫 2022 buntyo" style="text;html=1;strokeColor=none;fillColor=none;align=center;verticalAlign=middle;whiteSpace=wrap;rounded=0;fontSize=16;fontColor=#000000;" parent="1" vertex="1">
                    <mxGeometry x="570" y="470" width="170" height="30" as="geometry"/>
                </mxCell>
            </root>
        </mxGraphModel>
    </diagram>
    <diagram id="rSsudI_Z2Vq0wnlrX9q7" name="コンポーネント設計">
        <mxGraphModel dx="959" dy="908" grid="1" gridSize="10" guides="1" tooltips="1" connect="1" arrows="1" fold="1" page="1" pageScale="1" pageWidth="827" pageHeight="1169" math="0" shadow="0">
            <root>
                <mxCell id="bTSkA0WDo1r-8uEYL3wu-0"/>
                <mxCell id="bTSkA0WDo1r-8uEYL3wu-1" parent="bTSkA0WDo1r-8uEYL3wu-0"/>
                <mxCell id="bTSkA0WDo1r-8uEYL3wu-2" value="App" style="rounded=0;whiteSpace=wrap;html=1;align=left;verticalAlign=top;fontSize=16;" parent="bTSkA0WDo1r-8uEYL3wu-1" vertex="1">
                    <mxGeometry x="54" y="50" width="236" height="270" as="geometry"/>
                </mxCell>
                <mxCell id="QvTejYyYI1yMZdThHoig-4" style="edgeStyle=none;html=1;exitX=0.5;exitY=1;exitDx=0;exitDy=0;fontSize=16;fontColor=#000000;strokeColor=#000000;strokeWidth=5;" parent="bTSkA0WDo1r-8uEYL3wu-1" source="bTSkA0WDo1r-8uEYL3wu-3" target="bTSkA0WDo1r-8uEYL3wu-4" edge="1">
                    <mxGeometry relative="1" as="geometry"/>
                </mxCell>
                <mxCell id="bTSkA0WDo1r-8uEYL3wu-3" value="Home" style="rounded=0;whiteSpace=wrap;html=1;align=left;verticalAlign=top;fontSize=16;" parent="bTSkA0WDo1r-8uEYL3wu-1" vertex="1">
                    <mxGeometry x="366" y="50" width="246" height="250" as="geometry"/>
                </mxCell>
                <mxCell id="bTSkA0WDo1r-8uEYL3wu-4" value="SampCommon" style="rounded=0;whiteSpace=wrap;html=1;align=left;verticalAlign=top;fontSize=16;" parent="bTSkA0WDo1r-8uEYL3wu-1" vertex="1">
                    <mxGeometry x="370" y="360" width="246" height="250" as="geometry"/>
                </mxCell>
                <mxCell id="bTSkA0WDo1r-8uEYL3wu-5" value="Samp1" style="rounded=0;whiteSpace=wrap;html=1;align=left;verticalAlign=top;fontSize=16;" parent="bTSkA0WDo1r-8uEYL3wu-1" vertex="1">
                    <mxGeometry x="210" y="710" width="156" height="90" as="geometry"/>
                </mxCell>
                <mxCell id="bTSkA0WDo1r-8uEYL3wu-6" value="Samp2" style="rounded=0;whiteSpace=wrap;html=1;align=left;verticalAlign=top;fontSize=16;" parent="bTSkA0WDo1r-8uEYL3wu-1" vertex="1">
                    <mxGeometry x="400" y="710" width="156" height="90" as="geometry"/>
                </mxCell>
                <mxCell id="bTSkA0WDo1r-8uEYL3wu-7" value="Samp3" style="rounded=0;whiteSpace=wrap;html=1;align=left;verticalAlign=top;fontSize=16;" parent="bTSkA0WDo1r-8uEYL3wu-1" vertex="1">
                    <mxGeometry x="600" y="710" width="156" height="90" as="geometry"/>
                </mxCell>
                <mxCell id="bTSkA0WDo1r-8uEYL3wu-13" value="" style="endArrow=classic;html=1;fontSize=16;entryX=0.5;entryY=0;entryDx=0;entryDy=0;" parent="bTSkA0WDo1r-8uEYL3wu-1" target="bTSkA0WDo1r-8uEYL3wu-5" edge="1">
                    <mxGeometry width="50" height="50" relative="1" as="geometry">
                        <mxPoint x="493" y="610" as="sourcePoint"/>
                        <mxPoint x="440" y="440" as="targetPoint"/>
                    </mxGeometry>
                </mxCell>
                <mxCell id="bTSkA0WDo1r-8uEYL3wu-14" value="" style="endArrow=classic;html=1;fontSize=16;exitX=0.5;exitY=1;exitDx=0;exitDy=0;entryX=0.5;entryY=0;entryDx=0;entryDy=0;" parent="bTSkA0WDo1r-8uEYL3wu-1" source="bTSkA0WDo1r-8uEYL3wu-4" target="bTSkA0WDo1r-8uEYL3wu-6" edge="1">
                    <mxGeometry width="50" height="50" relative="1" as="geometry">
                        <mxPoint x="505.46000000000004" y="627.5" as="sourcePoint"/>
                        <mxPoint x="298" y="720" as="targetPoint"/>
                    </mxGeometry>
                </mxCell>
                <mxCell id="bTSkA0WDo1r-8uEYL3wu-15" value="" style="endArrow=classic;html=1;fontSize=16;exitX=0.5;exitY=1;exitDx=0;exitDy=0;entryX=0.545;entryY=0.031;entryDx=0;entryDy=0;entryPerimeter=0;" parent="bTSkA0WDo1r-8uEYL3wu-1" source="bTSkA0WDo1r-8uEYL3wu-4" target="bTSkA0WDo1r-8uEYL3wu-7" edge="1">
                    <mxGeometry width="50" height="50" relative="1" as="geometry">
                        <mxPoint x="503" y="620" as="sourcePoint"/>
                        <mxPoint x="488" y="720" as="targetPoint"/>
                    </mxGeometry>
                </mxCell>
                <mxCell id="QvTejYyYI1yMZdThHoig-0" value="タイトル" style="text;html=1;strokeColor=none;fillColor=none;align=center;verticalAlign=middle;whiteSpace=wrap;rounded=0;fontSize=16;" parent="bTSkA0WDo1r-8uEYL3wu-1" vertex="1">
                    <mxGeometry x="418" y="100" width="150" height="40" as="geometry"/>
                </mxCell>
                <mxCell id="QvTejYyYI1yMZdThHoig-1" value="画像一覧" style="text;html=1;strokeColor=none;fillColor=none;align=center;verticalAlign=middle;whiteSpace=wrap;rounded=0;fontSize=16;" parent="bTSkA0WDo1r-8uEYL3wu-1" vertex="1">
                    <mxGeometry x="418" y="200" width="150" height="40" as="geometry"/>
                </mxCell>
                <mxCell id="QvTejYyYI1yMZdThHoig-3" value="フッター等の全画面共通処理" style="text;html=1;strokeColor=none;fillColor=none;align=center;verticalAlign=middle;whiteSpace=wrap;rounded=0;fontSize=16;" parent="bTSkA0WDo1r-8uEYL3wu-1" vertex="1">
                    <mxGeometry x="100" y="240" width="150" height="40" as="geometry"/>
                </mxCell>
                <mxCell id="QvTejYyYI1yMZdThHoig-5" value="トップに戻るのリンク" style="text;html=1;strokeColor=none;fillColor=none;align=center;verticalAlign=middle;whiteSpace=wrap;rounded=0;fontSize=16;" parent="bTSkA0WDo1r-8uEYL3wu-1" vertex="1">
                    <mxGeometry x="376" y="545" width="180" height="40" as="geometry"/>
                </mxCell>
            </root>
        </mxGraphModel>
    </diagram>
</mxfile>